<svg width="32" height="32" viewBox="0 0 32 32" fill="none" xmlns="http://www.w3.org/2000/svg">
<path fill-rule="evenodd" clip-rule="evenodd" d="M24.552 8.552L20.7813 4.78133C20.2813 4.28133 19.6027 4 18.896 4H9.33334C7.86 4 6.66667 5.19333 6.66667 6.66667V25.3333C6.66667 26.8067 7.86 28 9.33334 28H22.6667C24.14 28 25.3333 26.8067 25.3333 25.3333V10.4373C25.3333 9.73067 25.052 9.052 24.552 8.552V8.552Z" stroke="white" stroke-width="1.5" stroke-linecap="round" stroke-linejoin="round"/>
<path d="M25.3333 10.6667H20C19.264 10.6667 18.6667 10.0693 18.6667 9.33333V4" stroke="white" stroke-width="1.5" stroke-linecap="round" stroke-linejoin="round"/>
<path d="M13.4233 22.1021C12.9346 22.1021 12.6445 21.8066 12.6445 21.291V14.9531C12.6445 14.4375 12.9453 14.1421 13.4609 14.1421C13.7939 14.1421 14.0195 14.2764 14.2666 14.6147L17.6182 19.2983H17.6611V14.9585C17.6611 14.4375 17.9512 14.1421 18.4399 14.1421C18.9287 14.1421 19.2134 14.4375 19.2134 14.9585V21.3125C19.2134 21.8174 18.9287 22.1021 18.4185 22.1021C18.0693 22.1021 17.8545 21.9785 17.6074 21.6348L14.2451 16.9243H14.1968V21.291C14.1968 21.8066 13.9067 22.1021 13.4233 22.1021Z" fill="white"/>
</svg>
