<svg width="32" height="32" viewBox="0 0 32 32" fill="none" xmlns="http://www.w3.org/2000/svg">
<path fill-rule="evenodd" clip-rule="evenodd" d="M24.552 8.552L20.7813 4.78133C20.2813 4.28133 19.6027 4 18.896 4H9.33334C7.86 4 6.66667 5.19333 6.66667 6.66667V25.3333C6.66667 26.8067 7.86 28 9.33334 28H22.6667C24.14 28 25.3333 26.8067 25.3333 25.3333V10.4373C25.3333 9.73067 25.052 9.052 24.552 8.552V8.552Z" stroke="white" stroke-width="1.5" stroke-linecap="round" stroke-linejoin="round"/>
<path d="M25.3333 10.6667H20C19.264 10.6667 18.6667 10.0693 18.6667 9.33333V4" stroke="white" stroke-width="1.5" stroke-linecap="round" stroke-linejoin="round"/>
<path d="M12.4072 22.1021C11.9023 22.1021 11.5854 21.8066 11.5854 21.3394C11.5854 21.2051 11.623 21.0225 11.6929 20.8237L13.8091 15.0605C14.0347 14.4321 14.416 14.1421 15.0283 14.1421C15.6621 14.1421 16.0381 14.4214 16.269 15.0552L18.396 20.8237C18.4712 21.0332 18.498 21.1782 18.498 21.3394C18.498 21.7852 18.1597 22.1021 17.687 22.1021C17.2305 22.1021 16.9888 21.8926 16.8438 21.3877L16.4355 20.1631H13.6372L13.229 21.3716C13.0786 21.8872 12.8369 22.1021 12.4072 22.1021ZM13.9917 18.9062H16.0596L15.0337 15.7319H14.9961L13.9917 18.9062ZM20.2974 22.1021C19.7871 22.1021 19.4863 21.7905 19.4863 21.2588V14.9907C19.4863 14.4536 19.7871 14.1421 20.2974 14.1421C20.8076 14.1421 21.1084 14.4536 21.1084 14.9907V21.2588C21.1084 21.7905 20.8076 22.1021 20.2974 22.1021Z" fill="white"/>
</svg>
