<svg width="33" height="32" viewBox="0 0 33 32" fill="none" xmlns="http://www.w3.org/2000/svg">
<path d="M25.778 16.0601V6.72673C25.778 5.25339 24.5847 4.06006 23.1114 4.06006H7.11137C5.63804 4.06006 4.4447 5.25339 4.4447 6.72673V22.7267C4.4447 24.2001 5.63804 25.3934 7.11137 25.3934H16.4447" stroke="white" stroke-width="1.5" stroke-linecap="round" stroke-linejoin="round"/>
<path fill-rule="evenodd" clip-rule="evenodd" d="M27.9527 25.6827L26.0674 27.568C25.546 28.0894 24.702 28.0894 24.182 27.568L14.1407 17.5267C13.89 17.2774 13.75 16.9374 13.75 16.584V13.3654H16.9687C17.322 13.3654 17.662 13.5054 17.9114 13.756L27.9527 23.7974C28.474 24.3174 28.474 25.1614 27.9527 25.6827V25.6827Z" stroke="white" stroke-width="1.5" stroke-linecap="round" stroke-linejoin="round"/>
<path d="M25.5634 21.4135L21.79 25.1735" stroke="white" stroke-width="1.5" stroke-linecap="round" stroke-linejoin="round"/>
</svg>
