<svg width="32" height="32" viewBox="0 0 32 32" fill="none" xmlns="http://www.w3.org/2000/svg">
<path fill-rule="evenodd" clip-rule="evenodd" d="M25.591 7.35903L22.3463 4.11436C21.916 3.68411 21.332 3.44202 20.724 3.44202H12.4952C11.2274 3.44202 10.2006 4.46888 10.2006 5.73669V21.7994C10.2006 23.0672 11.2274 24.0941 12.4952 24.0941H23.9686C25.2364 24.0941 26.2633 23.0672 26.2633 21.7994V8.98137C26.2633 8.37328 26.0212 7.78928 25.591 7.35903V7.35903Z" stroke="white" stroke-width="1.5" stroke-linecap="round" stroke-linejoin="round"/>
<path d="M26.2633 9.17871H21.674C21.0406 9.17871 20.5266 8.6647 20.5266 8.03137V3.44202" stroke="white" stroke-width="1.5" stroke-linecap="round" stroke-linejoin="round"/>
<path fill-rule="evenodd" clip-rule="evenodd" d="M21.1271 11.8229L17.8824 8.57822C17.4522 8.14797 16.8682 7.90588 16.2601 7.90588H8.03137C6.76356 7.90588 5.73669 8.93275 5.73669 10.2006V26.2633C5.73669 27.5311 6.76356 28.558 8.03137 28.558H19.5048C20.7726 28.558 21.7994 27.5311 21.7994 26.2633V13.4452C21.7994 12.8371 21.5574 12.2532 21.1271 11.8229V11.8229Z" stroke="white" stroke-width="1.5" stroke-linecap="round" stroke-linejoin="round"/>
<path d="M21.7994 13.6426H17.2101C16.5768 13.6426 16.0627 13.1286 16.0627 12.4952V7.90588" stroke="white" stroke-width="1.5" stroke-linecap="round" stroke-linejoin="round"/>
</svg>
