<svg width="33" height="32" viewBox="0 0 33 32" fill="none" xmlns="http://www.w3.org/2000/svg">
<path fill-rule="evenodd" clip-rule="evenodd" d="M27.378 5.72266V5.72266C26.334 4.67866 24.6607 4.624 23.55 5.59466L12.834 14.9707C11.6727 15.9867 11.614 17.772 12.7047 18.8627L14.2367 20.3947C15.3274 21.4853 17.114 21.4253 18.1287 20.2653L27.5047 9.54933C28.4767 8.44 28.4207 6.76666 27.378 5.72266V5.72266Z" stroke="white" stroke-width="1.5" stroke-linecap="round" stroke-linejoin="round"/>
<path d="M14.91 13.16L19.95 18.2" stroke="white" stroke-width="1.5" stroke-linecap="round" stroke-linejoin="round"/>
<path fill-rule="evenodd" clip-rule="evenodd" d="M5.21537 27.0974H10.1527C14.1327 27.0974 16.126 22.2854 13.3114 19.4707V19.4707C11.242 17.4014 7.72737 18.1627 6.7007 20.9027L4.67137 26.3134C4.53004 26.6934 4.81004 27.0974 5.21537 27.0974Z" stroke="white" stroke-width="1.5" stroke-linecap="round" stroke-linejoin="round"/>
</svg>
